<?xml version="1.0" encoding="UTF-8"?>
<svg id="Layer_2" data-name="Layer 2" xmlns="http://www.w3.org/2000/svg" viewBox="0 0 66.52 64.17">
  <defs>
    <style>
      .cls-1 {
        stroke: #fff;
      }

      .cls-1, .cls-2 {
        fill: none;
        stroke-linecap: round;
        stroke-linejoin: round;
      }

      .cls-2 {
        stroke: #000;
      }

      .cls-3 {
        fill: #2546f0;
        stroke-width: 0px;
      }
    </style>
  </defs>
  <g id="Isolation_Mode" data-name="Isolation Mode">
    <g>
      <g>
        <circle class="cls-3" cx="33.26" cy="35.01" r="11.21"/>
        <polyline class="cls-1" points="28.04 34.99 31.71 39.21 39.02 31.9"/>
      </g>
      <path class="cls-2" d="m33.84.97l8.88,20.04c.1.33.39.55.73.55l21.91,2.5c.36,0,.65.29.65.65,0,0,0,.01,0,.02-.02.2-.12.39-.27.52l-16.43,14.58c-.24.21-.34.53-.28.83l4.68,22.03c.12.33-.06.69-.39.81,0,0-.02,0-.03,0-.18.1-.4.1-.58,0l-19.04-11.42c-.27-.2-.64-.2-.92,0l-19.02,11.46c-.28.21-.68.15-.89-.13,0,0,0-.01-.01-.02-.12-.17-.16-.38-.1-.58l4.66-22.01c.08-.31-.03-.64-.28-.83L.69,25.32c-.25-.25-.25-.66,0-.92.12-.14.29-.22.47-.23l21.88-2.5c.34,0,.63-.21.73-.53L32.65.97c.1-.34.44-.54.78-.45.2.08.34.25.4.45Z"/>
    </g>
  </g>
</svg>