<?xml version="1.0" encoding="UTF-8"?>
<svg id="Layer_2" data-name="Layer 2" xmlns="http://www.w3.org/2000/svg" viewBox="0 0 20.12 19.43">
  <defs>
    <style>
      .cls-1 {
        fill: none;
        stroke: #000;
        stroke-miterlimit: 10;
      }
    </style>
  </defs>
  <g id="Isolation_Mode" data-name="Isolation Mode">
    <path class="cls-1" d="m10.23.64l2.59,5.85c.03.1.12.16.21.16l6.39.73c.1,0,.19.09.19.19,0,0,0,0,0,0,0,.06-.03.11-.08.15l-4.8,4.25c-.07.06-.1.15-.08.24l1.36,6.43c.03.1-.02.2-.11.24,0,0,0,0,0,0-.05.03-.12.03-.17,0l-5.56-3.33c-.08-.06-.19-.06-.27,0l-5.55,3.34c-.08.06-.2.04-.26-.04,0,0,0,0,0,0-.04-.05-.05-.11-.03-.17l1.36-6.42c.02-.09,0-.19-.08-.24L.56,7.74c-.07-.07-.07-.19,0-.27.03-.04.08-.06.14-.07l6.38-.73c.1,0,.18-.06.21-.16L9.88.64c.03-.1.13-.16.23-.13.06.02.1.07.12.13Z"/>
  </g>
</svg>